<svg xmlns="http://www.w3.org/2000/svg" width="223.46" height="35" viewBox="0 0 223.46 35"><rect class="svg__rect" x="0" y="0" width="144.22" height="35" fill="#008DFE"/><rect class="svg__rect" x="142.22" y="0" width="81.24000000000001" height="35" fill="#FFFFFF"/><path class="svg__text" d="M15.00 22L13.46 22L16.68 13.47L18.01 13.47L21.24 22L19.69 22L18.99 20.01L15.69 20.01L15.00 22ZM17.34 15.28L16.10 18.82L18.58 18.82L17.34 15.28ZM26.67 22L25.19 22L25.19 13.47L28.46 13.47Q29.89 13.47 30.73 14.21Q31.57 14.96 31.57 16.18L31.57 16.18Q31.57 17.44 30.74 18.13Q29.92 18.83 28.44 18.83L28.44 18.83L26.67 18.83L26.67 22ZM26.67 14.66L26.67 17.64L28.46 17.64Q29.25 17.64 29.66 17.27Q30.08 16.90 30.08 16.19L30.08 16.19Q30.08 15.50 29.66 15.09Q29.23 14.68 28.50 14.66L28.50 14.66L26.67 14.66ZM37.33 22L35.85 22L35.85 13.47L39.11 13.47Q40.54 13.47 41.38 14.21Q42.23 14.96 42.23 16.18L42.23 16.18Q42.23 17.44 41.40 18.13Q40.58 18.83 39.10 18.83L39.10 18.83L37.33 18.83L37.33 22ZM37.33 14.66L37.33 17.64L39.11 17.64Q39.90 17.64 40.32 17.27Q40.74 16.90 40.74 16.19L40.74 16.19Q40.74 15.50 40.31 15.09Q39.89 14.68 39.15 14.66L39.15 14.66L37.33 14.66ZM54.05 22L52.57 22L52.57 13.47L54.05 13.47L54.05 22ZM60.34 22L58.86 22L58.86 13.47L60.34 13.47L64.16 19.54L64.16 13.47L65.63 13.47L65.63 22L64.14 22L60.34 15.95L60.34 22ZM72.66 22L69.61 13.47L71.23 13.47L73.37 20.14L75.54 13.47L77.17 13.47L74.10 22L72.66 22ZM86.70 22L81.12 22L81.12 13.47L86.66 13.47L86.66 14.66L82.60 14.66L82.60 17.02L86.11 17.02L86.11 18.19L82.60 18.19L82.60 20.82L86.70 20.82L86.70 22ZM92.38 22L90.89 22L90.89 13.47L92.38 13.47L96.19 19.54L96.19 13.47L97.66 13.47L97.66 22L96.18 22L92.38 15.95L92.38 22ZM104.08 14.66L101.45 14.66L101.45 13.47L108.21 13.47L108.21 14.66L105.55 14.66L105.55 22L104.08 22L104.08 14.66ZM111.70 18.00L111.70 18.00L111.70 17.52Q111.70 16.28 112.14 15.32Q112.58 14.37 113.39 13.86Q114.20 13.35 115.24 13.35Q116.28 13.35 117.09 13.85Q117.89 14.35 118.33 15.29Q118.77 16.23 118.78 17.48L118.78 17.48L118.78 17.96Q118.78 19.21 118.34 20.16Q117.91 21.10 117.10 21.61Q116.30 22.12 115.25 22.12L115.25 22.12Q114.21 22.12 113.40 21.61Q112.59 21.10 112.15 20.17Q111.71 19.23 111.70 18.00ZM113.18 17.46L113.18 17.96Q113.18 19.36 113.73 20.13Q114.28 20.90 115.25 20.90L115.25 20.90Q116.23 20.90 116.77 20.15Q117.30 19.40 117.30 17.96L117.30 17.96L117.30 17.51Q117.30 16.09 116.76 15.34Q116.22 14.58 115.24 14.58L115.24 14.58Q114.28 14.58 113.74 15.33Q113.19 16.09 113.18 17.46L113.18 17.46ZM124.72 22L123.24 22L123.24 13.47L126.24 13.47Q127.72 13.47 128.52 14.13Q129.32 14.79 129.32 16.05L129.32 16.05Q129.32 16.90 128.91 17.48Q128.50 18.06 127.76 18.37L127.76 18.37L129.68 21.92L129.68 22L128.09 22L126.38 18.71L124.72 18.71L124.72 22ZM124.72 14.66L124.72 17.52L126.25 17.52Q127.00 17.52 127.42 17.15Q127.84 16.77 127.84 16.11L127.84 16.11Q127.84 15.43 127.45 15.05Q127.06 14.68 126.29 14.66L126.29 14.66L124.72 14.66Z" fill="#FFFFFF"/><path class="svg__text" d="M158.20 15.48L155.62 15.48L155.62 13.60L163.14 13.60L163.14 15.48L160.57 15.48L160.57 22L158.20 22L158.20 15.48ZM168.93 22L166.50 22L170.21 13.60L172.56 13.60L176.27 22L173.80 22L173.14 20.37L169.59 20.37L168.93 22ZM171.37 15.93L170.28 18.61L172.44 18.61L171.37 15.93ZM179.84 21.24L179.84 21.24L180.62 19.49Q181.18 19.86 181.93 20.09Q182.67 20.32 183.39 20.32L183.39 20.32Q184.76 20.32 184.76 19.64L184.76 19.64Q184.76 19.28 184.37 19.11Q183.98 18.93 183.11 18.74L183.11 18.74Q182.17 18.53 181.53 18.30Q180.89 18.06 180.44 17.55Q179.99 17.03 179.99 16.16L179.99 16.16Q179.99 15.39 180.40 14.77Q180.82 14.15 181.66 13.79Q182.49 13.43 183.70 13.43L183.70 13.43Q184.53 13.43 185.33 13.62Q186.14 13.80 186.75 14.17L186.75 14.17L186.02 15.93Q184.82 15.28 183.69 15.28L183.69 15.28Q182.98 15.28 182.66 15.49Q182.34 15.70 182.34 16.04L182.34 16.04Q182.34 16.37 182.72 16.54Q183.10 16.71 183.95 16.89L183.95 16.89Q184.91 17.10 185.54 17.33Q186.17 17.56 186.64 18.07Q187.10 18.58 187.10 19.46L187.10 19.46Q187.10 20.21 186.68 20.83Q186.26 21.44 185.42 21.80Q184.58 22.17 183.38 22.17L183.38 22.17Q182.36 22.17 181.40 21.92Q180.44 21.67 179.84 21.24ZM194.03 22L191.68 22L191.68 13.60L194.03 13.60L194.03 17.09L197.28 13.60L199.90 13.60L196.47 17.32L200.08 22L197.32 22L194.92 18.95L194.03 19.90L194.03 22ZM203.60 21.24L203.60 21.24L204.38 19.49Q204.94 19.86 205.69 20.09Q206.43 20.32 207.15 20.32L207.15 20.32Q208.52 20.32 208.52 19.64L208.52 19.64Q208.52 19.28 208.13 19.11Q207.74 18.93 206.87 18.74L206.87 18.74Q205.93 18.53 205.29 18.30Q204.65 18.06 204.20 17.55Q203.75 17.03 203.75 16.16L203.75 16.16Q203.75 15.39 204.16 14.77Q204.58 14.15 205.42 13.79Q206.25 13.43 207.46 13.43L207.46 13.43Q208.29 13.43 209.09 13.62Q209.90 13.80 210.51 14.17L210.51 14.17L209.78 15.93Q208.58 15.28 207.45 15.28L207.45 15.28Q206.74 15.28 206.42 15.49Q206.10 15.70 206.10 16.04L206.10 16.04Q206.10 16.37 206.48 16.54Q206.86 16.71 207.71 16.89L207.71 16.89Q208.67 17.10 209.30 17.33Q209.93 17.56 210.40 18.07Q210.86 18.58 210.86 19.46L210.86 19.46Q210.86 20.21 210.44 20.83Q210.02 21.44 209.18 21.80Q208.34 22.17 207.14 22.17L207.14 22.17Q206.12 22.17 205.16 21.92Q204.20 21.67 203.60 21.24Z" fill="#151534" x="155.22"/></svg>